<?xml version="1.0" encoding="utf-8"?><svg viewBox="0 0 512 512" xmlns="http://www.w3.org/2000/svg" xmlns:xlink="http://www.w3.org/1999/xlink"><style>:root>svg{display:none}:root>svg:target{display:block}</style><svg viewBox="0 0 129 129" id="arrow" xmlns="http://www.w3.org/2000/svg"><path d="M88.6 121.3c.8.8 1.8 1.2 2.9 1.2s2.1-.4 2.9-1.2c1.6-1.6 1.6-4.2 0-5.8l-51-51 51-51c1.6-1.6 1.6-4.2 0-5.8s-4.2-1.6-5.8 0l-54 53.9c-1.6 1.6-1.6 4.2 0 5.8l54 53.9z"/></svg><svg viewBox="0 0 91 91" id="burger" xmlns="http://www.w3.org/2000/svg"><path d="M85.713 12.142H5.861a4.175 4.175 0 010-8.35h79.852a4.174 4.174 0 010 8.35zm0 37.716H5.861a4.175 4.175 0 01-4.174-4.175 4.175 4.175 0 014.174-4.176h79.852a4.175 4.175 0 014.174 4.176 4.175 4.175 0 01-4.174 4.175zm0 37.713H5.861c-2.305 0-4.174-1.869-4.174-4.176s1.869-4.176 4.174-4.176h79.852c2.305 0 4.174 1.869 4.174 4.176s-1.869 4.176-4.174 4.176z"/></svg><svg viewBox="0 0 512 512" id="facebook" xmlns="http://www.w3.org/2000/svg"><path d="M308.3 508.5c-2.5.1-4.1.3-5.7.3-34.2 0-68.3-.1-102.5.1-4.8 0-6.1-1.3-6.1-6.1.1-79.6.1-159.3.1-238.9V257H139v-85h5.4c15 0 30-.1 45 .1 3.8 0 4.8-1.1 4.8-4.8-.2-22.3-.2-44.7 0-67 .1-15.6 2.6-30.8 9.8-44.9 10.3-19.9 26.6-32.8 47.2-40.8 16.8-6.6 34.5-9 52.3-9.3 29-.4 58-.2 87-.3 2.7 0 4.9-.1 4.9 3.7-.1 27.5-.1 55-.1 82.5 0 .3-.1.6-.5 1.9h-5.5c-18 0-36-.1-54 0-10.4 0-18.8 4.2-24.1 13.3-1.6 2.7-2.6 6.2-2.6 9.4-.3 17 0 34-.2 51 0 4 1.2 5.1 5.1 5.1 25-.2 50-.1 75-.1h7.3c-3.5 28.6-6.9 56.6-10.4 84.9h-77.1v251.8z"/></svg><svg viewBox="0 0 24 24" id="github" xmlns="http://www.w3.org/2000/svg"><path fill-rule="evenodd" clip-rule="evenodd" d="M12 0C5.37 0 0 5.37 0 12c0 5.31 3.435 9.795 8.205 11.385.6.105.825-.255.825-.57 0-.285-.015-1.23-.015-2.235-3.015.555-3.795-.735-4.035-1.41-.135-.345-.72-1.41-1.23-1.695-.42-.225-1.02-.78-.015-.795.945-.015 1.62.87 1.845 1.23 1.08 1.815 2.805 1.305 3.495.99.105-.78.42-1.305.765-1.605-2.67-.3-5.46-1.335-5.46-5.925 0-1.305.465-2.385 1.23-3.225-.12-.3-.54-1.53.12-3.18 0 0 1.005-.315 3.3 1.23.96-.27 1.98-.405 3-.405s2.04.135 3 .405c2.295-1.56 3.3-1.23 3.3-1.23.66 1.65.24 2.88.12 3.18.765.84 1.23 1.905 1.23 3.225 0 4.605-2.805 5.625-5.475 5.925.435.375.81 1.095.81 2.22 0 1.605-.015 2.895-.015 3.3 0 .315.225.69.825.57A12.02 12.02 0 0024 12c0-6.63-5.37-12-12-12z"/></svg><svg viewBox="0 0 100 100" id="icons8-menu" xmlns="http://www.w3.org/2000/svg"><path d="M87.2 56.7c1.1-2.2 1.8-4.6 1.8-7.2 0-6.6-4.2-12.3-10-14.5 0-11.6-9.4-21-21-21-9.8 0-18 6.7-20.3 15.8-1.5-.5-3-.8-4.7-.8-7.7 0-14 5.8-14.9 13.3C12.9 43.4 9 48 9 53.5 9 59.9 14.1 65 20.5 65h.5v.5C21 76.8 30.2 86 41.5 86c6.4 0 12.2-3 15.9-7.6 2.2 2.2 5.2 3.6 8.6 3.6 4.7 0 8.7-2.7 10.7-6.5 1.1.3 2.2.5 3.3.5 6.1 0 11-4.9 11-11 0-3.3-1.5-6.3-3.8-8.3z"/><path d="M79.9 36.5H86c2.5 0 4.5-2 4.5-4.5 0-2.3-1.8-4.2-4.1-4.5 0-.2.1-.4.1-.5 0-2.5-2-4.5-4.5-4.5-1.4 0-2.7.7-3.5 1.7-.1-2.6-2.3-4.7-5-4.7-2.8 0-5 2.2-5 5 0 .4.1.9.2 1.3-.7-.8-1.6-1.3-2.7-1.3-1.8 0-3.2 1.3-3.5 3.1-.2 0-.4-.1-.5-.1-2.5 0-4.5 2-4.5 4.5s2 4.5 4.5 4.5h14.9v.5h3v-.5z"/><path d="M73.5 19c-3 0-5.5 2.5-5.5 5.5-.6-.4-1.3-.5-2-.5-1.8 0-3.4 1.3-3.9 3H62c-2.8 0-5 2.2-5 5s2.2 5 5 5h14.9c.3 0 .5-.2.5-.5s-.2-.5-.5-.5H62c-2.2 0-4-1.8-4-4s1.8-4 4-4h.5c.2 0 .5-.2.5-.4.2-1.5 1.5-2.6 3-2.6.9 0 1.7.4 2.3 1.1.1.1.2.2.4.2.1 0 .2 0 .2-.1.2-.1.3-.3.3-.6-.1-.4-.2-.8-.2-1.2 0-2.5 2-4.5 4.5-4.5 2.4 0 4.3 1.9 4.5 4.3 0 .2.2.4.3.5h.2c.2 0 .3-.1.4-.2.8-1 1.9-1.5 3.1-1.5 2.2 0 4 1.8 4 4v.4c0 .1 0 .3.1.4s.2.2.3.2c2.1.2 3.6 1.9 3.6 4 0 2.2-1.8 4-4 4h-6.1c-.3 0-.5.2-.5.5s.2.5.5.5H86c2.8 0 5-2.2 5-5 0-2.4-1.7-4.4-4-4.9V27c0-2.8-2.2-5-5-5-1.2 0-2.3.4-3.2 1.2-.6-2.4-2.7-4.2-5.3-4.2z"/><path d="M72 26c-1.4 0-2.6 1-2.9 2.3-.4-.2-.8-.3-1.2-.3-1.2 0-2.2.9-2.4 2.1-.2 0-.4-.1-.6-.1-1.5 0-2.8 1.2-2.9 2.7 0 .1.1.3.2.3s.2-.1.2-.2c.1-1.3 1.2-2.3 2.4-2.3.2 0 .5 0 .7.1h.1c.1 0 .1 0 .2-.1.1 0 .1-.1.1-.2 0-1 .8-1.9 1.9-1.9.4 0 .9.2 1.2.5 0 0 .1.1.2.1h.1c.1 0 .1-.1.2-.2.1-1.3 1.2-2.3 2.5-2.3.2 0 .4 0 .7.1h.1c.1 0 .2-.1.2-.2s0-.3-.2-.3c-.3-.1-.5-.1-.8-.1zm13.9 1.5c-1.3 0-2.5.9-2.9 2.2 0 .1 0 .3.2.3h.1c.1 0 .2-.1.2-.2.3-1.1 1.3-1.8 2.4-1.8h.3c.1 0 .2-.1.2-.2s-.1-.3-.2-.3h-.3zM15.4 51H5.5c-.3 0-.5-.2-.5-.5s.2-.5.5-.5h9.9c.3 0 .5.2.5.5s-.2.5-.5.5zm3.1 0h-1c-.3 0-.5-.2-.5-.5s.2-.5.5-.5h1c.3 0 .5.2.5.5s-.2.5-.5.5zm5 2h-9c-.3 0-.5-.2-.5-.5s.2-.5.5-.5h9c.3 0 .5.2.5.5s-.2.5-.5.5zm-11 0h-1c-.3 0-.5-.2-.5-.5s.2-.5.5-.5h1c.3 0 .5.2.5.5s-.2.5-.5.5zm-3 0h-2c-.3 0-.5-.2-.5-.5s.2-.5.5-.5h2c.3 0 .5.2.5.5s-.2.5-.5.5zm6 2h-2c-.3 0-.5-.2-.5-.5s.2-.5.5-.5h2c.3 0 .5.2.5.5s-.2.5-.5.5zm3-9h-1c-.3 0-.5.2-.5.5s.2.5.5.5h1c.3 0 .5-.2.5-.5s-.2-.5-.5-.5zm0 2h-5c-.3 0-.5.2-.5.5s.2.5.5.5h5c.3 0 .5-.2.5-.5s-.2-.5-.5-.5zm5 2h-3c-.3 0-.5.2-.5.5s.2.5.5.5h3c.3 0 .5-.2.5-.5s-.2-.5-.5-.5zm63 11h-10c-.3 0-.5-.2-.5-.5s.2-.5.5-.5h10c.3 0 .5.2.5.5s-.2.5-.5.5zm4 0h-2c-.3 0-.5-.2-.5-.5s.2-.5.5-.5h2c.3 0 .5.2.5.5s-.2.5-.5.5zm5 2h-10c-.3 0-.5-.2-.5-.5s.2-.5.5-.5h10c.3 0 .5.2.5.5s-.2.5-.5.5zm-12 0h-1c-.3 0-.5-.2-.5-.5s.2-.5.5-.5h1c.3 0 .5.2.5.5s-.2.5-.5.5zm-3.1 0h-1.9c-.3 0-.5-.2-.5-.5s.2-.5.5-.5h1.9c.3 0 .5.2.5.5s-.2.5-.5.5zm9.1-4h-5c-.3 0-.5-.2-.5-.5s.2-.5.5-.5h5c.3 0 .5.2.5.5s-.2.5-.5.5zm-3 6h-2c-.3 0-.5-.2-.5-.5s.2-.5.5-.5h2c.3 0 .5.2.5.5s-.2.5-.5.5z"/><path d="M29.7 30.7h43.6v7.6H29.7z"/><path d="M72.6 31.4v6.2H30.4v-6.2h42.2M74 30H29v9h45v-9zM29.7 45.7h43.6v7.6H29.7z"/><path d="M72.6 46.4v6.2H30.4v-6.2h42.2M74 45H29v9h45v-9zM29.7 60.7h43.6v7.6H29.7z"/><path d="M72.6 61.4v6.2H30.4v-6.2h42.2M74 60H29v9h45v-9zm-14.5-9h-30c-.3 0-.5-.2-.5-.5s.2-.5.5-.5h30c.3 0 .5.2.5.5s-.2.5-.5.5zm10.1 0h-.9c-.3 0-.5-.2-.5-.5s.2-.5.5-.5h.9c.3 0 .5.2.5.5s-.2.5-.5.5z"/><path d="M72.5 66h-39c-.3 0-.5-.2-.5-.5s.2-.5.5-.5h39c.3 0 .5.2.5.5s-.2.5-.5.5zm-41.1 3h-.9c-.3 0-.5-.2-.5-.5s.2-.5.5-.5h.9c.3 0 .5.2.5.5s-.2.5-.5.5zm34.1-34h-36c-.3 0-.5-.2-.5-.5s.2-.5.5-.5h36c.3 0 .5.2.5.5s-.2.5-.5.5zm4 0h-.9c-.3 0-.5-.2-.5-.5s.2-.5.5-.5h.9c.3 0 .5.2.5.5s-.2.5-.5.5zm-3.6 16h-3.4c-.3 0-.5-.2-.5-.5s.2-.5.5-.5h3.4c.3 0 .5.2.5.5s-.2.5-.5.5z"/><path d="M37.5 76.5H41c1.9 0 3.5-1.6 3.5-3.5 0-1.8-1.3-3.2-3.1-3.5 0-.2.1-.4.1-.5 0-1.9-1.6-3.5-3.5-3.5-1 0-2 .5-2.6 1.2-.4-1.8-2-3.2-3.9-3.2-2.2 0-4 1.8-4 4 0 .2 0 .4.1.6-.4-.3-1-.6-1.6-.6-1.2 0-2.2.9-2.5 2.1-.2 0-.4-.1-.5-.1-1.9 0-3.5 1.6-3.5 3.5s1.6 3.5 3.5 3.5h7.5v.5h7v-.5z"/><path d="M39.3 72c-.1 0-.3-.1-.3-.3 0-1.2 1-2.2 2.2-2.2 0 0 .7 0 1.2.1.1 0 .2.2.2.3 0 .1-.2.2-.3.2-.4-.1-1.1-.1-1.1-.1-.9 0-1.7.8-1.7 1.7 0 .2-.1.3-.2.3zm-6.8 4a.5.5 0 100 1 .5.5 0 100-1z"/><path d="M41 77h-3.5c-.3 0-.5-.2-.5-.5s.2-.5.5-.5H41c1.7 0 3-1.3 3-3 0-1.5-1.1-2.8-2.6-3-.1 0-.3-.1-.3-.2s-.1-.2-.1-.4v-.5c0-1.7-1.3-3-3-3-.8 0-1.6.4-2.2 1-.1.1-.3.2-.5.1-.2 0-.3-.2-.4-.4-.3-1.6-1.8-2.8-3.4-2.8-1.9 0-3.5 1.6-3.5 3.5v.4c0 .2-.1.4-.2.5s-.4.1-.6 0c-.3 0-.8-.2-1.2-.2-1 0-1.8.7-2 1.6 0 .3-.3.4-.6.4h-.5c-1.7 0-3 1.3-3 3s1.3 3 3 3h7.5c.3 0 .5.2.5.5s-.1.5-.4.5H23c-2.2 0-4-1.8-4-4s1.8-4 4-4h.2c.4-1.2 1.5-2 2.8-2 .3 0 .7.1 1 .2.2-2.3 2.1-4.2 4.5-4.2 1.8 0 3.5 1.1 4.2 2.8.7-.5 1.5-.8 2.3-.8 2.2 0 4 1.8 4 4v.1c1.7.4 3 2 3 3.9 0 2.2-1.8 4-4 4z"/><path d="M35.5 76h-1c-.3 0-.5.2-.5.5s.2.5.5.5h1c.3 0 .5-.2.5-.5s-.2-.5-.5-.5z"/></svg><svg viewBox="0 0 512 512" id="instagram" xmlns="http://www.w3.org/2000/svg"><path d="M505 257c0 34.8-.7 69.7.2 104.5 1.5 61.6-37.2 109.2-86.5 130.4-19.8 8.5-40.6 13-62.1 13-67.3.1-134.7 1-202-.3-50.7-1-92.4-22.2-122.3-64-15.7-22-23.2-47-23.2-74.1v-215c0-58.5 28.5-99.4 79.1-126C110.2 14 134.1 9.1 159 9c65.3 0 130.7-.4 196 .2 50.7.4 93 19.8 124.2 60.6 17.4 22.8 25.8 49 25.8 77.8V257zm-459 0v110c0 16.4 3.8 31.8 12.3 45.7 22.3 36.5 56 54.3 97.8 55 67.1 1 134.3.4 201.5.2 16.5 0 32.5-3.4 47.4-10.5 40.6-19.4 63.3-50.3 63.1-96.7-.4-71-.1-142-.1-213 0-20.1-5.7-38.5-17.6-54.7-23-31.1-54.8-46.4-92.8-46.8-67-.8-134-.3-201-.2-14.3 0-28.1 2.9-41.5 7.9-36.8 13.7-71 48.4-69.4 99.5 1.2 34.6.3 69.1.3 103.6z"/><path d="M257.6 363c-64.5 0-116.5-51.4-116.6-115.4-.1-63 52.3-114.6 116.4-114.6 64.3-.1 116.5 51.4 116.6 114.9 0 63.4-52.1 115-116.4 115.1zm0-37c43.9 0 79.5-35.1 79.4-78.3-.1-42.8-35.7-77.8-79.4-77.8-43.9 0-79.7 34.9-79.7 78 .1 43.2 35.8 78.2 79.7 78.1zM387.5 98c13.5 0 24.5 11.5 24.5 25.6-.1 14.1-11.2 25.5-24.7 25.4-13.3-.1-24.2-11.5-24.2-25.3C363 109.6 374 98 387.5 98z"/></svg><svg viewBox="0 0 64 64" id="mail" xmlns="http://www.w3.org/2000/svg"><path d="M63.125 9.977a5.004 5.004 0 00-4.131-2.194H5.006c-1.676 0-3.158.842-4.067 2.117l31.16 25.982L63.125 9.977z"/><path d="M.006 14.328v36.889c0 2.75 2.25 5 5 5h53.988c2.75 0 5-2.25 5-5V14.461L32.099 41.09.006 14.328z"/></svg></svg>